<svg width="280" height="280" viewBox="0 0 280 280" fill="none" xmlns="http://www.w3.org/2000/svg">
<g filter="url(#filter0_d)">
<rect x="6" y="6" width="256" height="256" rx="8" fill="#D40000"/>
<path d="M124.903 151.68L123.767 146.322L173.287 112.159L178.157 141.029L124.903 151.68V151.68ZM167.426 193.378C166.661 201.028 153.275 206 153.275 206L129.561 154.41L136.829 153.263C148.312 167.281 160.781 167.469 167.426 193.379L167.426 193.378ZM137.95 193.805C127.872 191.763 120.201 191.069 114.423 191.069C107.94 191.069 103.843 191.944 101.421 192.772L108.622 176.243L108.648 176.177C108.675 176.11 111.596 169.78 135.802 173.482L141.86 186.66L137.95 193.805ZM94.6825 124.96L80.7964 97.5697L95.7128 82.6533L102.597 113.06C99.6286 116.222 97.004 120.223 94.682 124.96H94.6825ZM158.056 103.307L195.538 71.9444L167.426 62L140.772 98.4143C146.474 99.019 152.893 101.302 158.056 103.307V103.307ZM138.364 98.2329L159.203 62H132.048L120.956 100.82C126.408 98.9087 132.219 98.0692 138.364 98.2329ZM119.044 101.394L123.06 67.9282L101.45 76.9164L104.499 111.209C108.268 107.645 112.904 104.316 119.044 101.394ZM91.5685 154.944L73.1475 149.203L77.3544 161.824H93.7502C92.8454 159.591 92.116 157.29 91.5688 154.944L91.5685 154.944ZM94.6938 163.993L80.7967 166.032L87.3942 175.785L98.5317 170.714C97.0675 168.585 95.7837 166.337 94.6938 163.993ZM90.3586 140.002L73.1475 128.932L72 144.613L90.8395 151.078C90.3724 147.515 90.2236 143.818 90.3586 140.002ZM92.8443 127.784L79.2675 108.588L73.1475 123.577L90.3589 138.281L92.8446 127.784L92.8443 127.784ZM106.158 176.151C108.419 168.926 123.533 169.448 134.657 170.99L126.692 153.662L123.129 154.375L121.205 145.301L167.284 113.513C137.906 88.1562 113.132 105.43 104.344 114.781C92.6249 127.25 83.9062 153.594 106.158 176.152V176.151Z" fill="#F0EFEF"/>
</g>
<defs>
<filter id="filter0_d" x="0" y="0" width="280" height="280" filterUnits="userSpaceOnUse" color-interpolation-filters="sRGB">
<feFlood flood-opacity="0" result="BackgroundImageFix"/>
<feColorMatrix in="SourceAlpha" type="matrix" values="0 0 0 0 0 0 0 0 0 0 0 0 0 0 0 0 0 0 127 0"/>
<feOffset dx="6" dy="6"/>
<feGaussianBlur stdDeviation="6"/>
<feColorMatrix type="matrix" values="0 0 0 0 0 0 0 0 0 0 0 0 0 0 0 0 0 0 0.35 0"/>
<feBlend mode="normal" in2="BackgroundImageFix" result="effect1_dropShadow"/>
<feBlend mode="normal" in="SourceGraphic" in2="effect1_dropShadow" result="shape"/>
</filter>
</defs>
</svg>
