<svg width="280" height="280" viewBox="0 0 280 280" fill="none" xmlns="http://www.w3.org/2000/svg">
<g filter="url(#filter0_d)">
<rect x="6" y="6" width="256" height="256" rx="8" fill="#2396ED"/>
<path d="M84.9424 199.553H106.338V178.185H84.9424V199.553ZM67.0539 160.301V178.185H84.9378V160.301H67.0539ZM202.405 111.03C195.725 89.4901 178.482 72.3309 156.938 65.5676C107.555 50.1503 62 86.8749 62 133.968H89.8152C89.8152 104.415 119.135 81.5655 150.23 92.83C155.947 94.9068 161.14 98.2104 165.444 102.509C169.748 106.807 173.058 111.995 175.142 117.709C186.495 148.776 163.618 178.041 134.093 178.097V178.185H134.005V206C181.213 206 217.85 160.477 202.405 111.034V111.03ZM134.093 178.097V150.43H106.338V178.185H134.005V178.097H134.093Z" fill="#F0EFEF"/>
</g>
<defs>
<filter id="filter0_d" x="0" y="0" width="280" height="280" filterUnits="userSpaceOnUse" color-interpolation-filters="sRGB">
<feFlood flood-opacity="0" result="BackgroundImageFix"/>
<feColorMatrix in="SourceAlpha" type="matrix" values="0 0 0 0 0 0 0 0 0 0 0 0 0 0 0 0 0 0 127 0"/>
<feOffset dx="6" dy="6"/>
<feGaussianBlur stdDeviation="6"/>
<feColorMatrix type="matrix" values="0 0 0 0 0 0 0 0 0 0 0 0 0 0 0 0 0 0 0.35 0"/>
<feBlend mode="normal" in2="BackgroundImageFix" result="effect1_dropShadow"/>
<feBlend mode="normal" in="SourceGraphic" in2="effect1_dropShadow" result="shape"/>
</filter>
</defs>
</svg>
