<svg width="280" height="280" viewBox="0 0 280 280" fill="none" xmlns="http://www.w3.org/2000/svg">
<g filter="url(#filter0_d)">
<rect x="6" y="6" width="256" height="256" rx="8" fill="#2396ED"/>
<path d="M74.2177 177.976C68.5178 177.976 63.3371 173.321 63.3371 167.646C63.3371 161.971 67.9922 157.285 74.2177 157.285C80.4745 157.285 85.1733 161.946 85.1733 167.646C85.1733 173.321 79.9614 177.976 74.2552 177.976H74.2177ZM207.794 121.571C206.649 113.293 201.537 106.548 194.786 101.399L192.152 99.3155L190.031 101.887C185.926 106.548 184.268 114.826 184.781 121.014C185.276 125.713 186.765 130.368 189.411 133.984C187.259 135.092 184.656 136.068 182.629 137.144C177.874 138.702 173.244 139.228 168.62 139.228H34.8187L34.2931 142.287C33.2811 152.38 34.8999 162.563 38.992 171.844L41.0442 175.467V175.949C53.5578 196.677 75.8132 206 100.09 206C146.759 206 185.013 185.828 203.158 142.325C215.052 142.844 227.052 139.747 232.683 128.341L234.185 125.769L231.707 124.199C224.931 120.063 215.671 119.512 207.925 121.596L207.756 121.627L207.794 121.571ZM140.99 113.293H120.724V133.49H140.99V113.293ZM140.99 87.9094H120.724V108.106H140.99V87.9094ZM140.99 62H120.724V82.2032H140.99V62ZM165.755 113.293H145.614V133.49H165.817V113.293H165.755ZM90.7106 113.293H70.57V133.49H90.7732V113.293H90.7106ZM115.963 113.293H95.96V133.49H116.101V113.293H115.963ZM65.6834 113.293H45.668V133.49H65.94V113.293H65.6834ZM115.963 87.9094H95.96V108.106H116.101V87.9344L115.963 87.9094ZM90.5729 87.9094H70.6013V108.106H90.7419V87.9344L90.6105 87.9094H90.5729Z" fill="#F0EFEF"/>
</g>
<defs>
<filter id="filter0_d" x="0" y="0" width="280" height="280" filterUnits="userSpaceOnUse" color-interpolation-filters="sRGB">
<feFlood flood-opacity="0" result="BackgroundImageFix"/>
<feColorMatrix in="SourceAlpha" type="matrix" values="0 0 0 0 0 0 0 0 0 0 0 0 0 0 0 0 0 0 127 0"/>
<feOffset dx="6" dy="6"/>
<feGaussianBlur stdDeviation="6"/>
<feColorMatrix type="matrix" values="0 0 0 0 0 0 0 0 0 0 0 0 0 0 0 0 0 0 0.35 0"/>
<feBlend mode="normal" in2="BackgroundImageFix" result="effect1_dropShadow"/>
<feBlend mode="normal" in="SourceGraphic" in2="effect1_dropShadow" result="shape"/>
</filter>
</defs>
</svg>
