<svg width="280" height="280" viewBox="0 0 280 280" fill="none" xmlns="http://www.w3.org/2000/svg">
<g filter="url(#filter0_d)">
<rect x="6" y="6" width="256" height="256" rx="8" fill="#744C9E"/>
<path d="M132.196 208C94.5993 207.078 64.1459 177.345 62.0864 140.036L62 137.782L132.196 208V208ZM133.989 64C145.569 63.9917 156.98 66.7796 167.252 72.1267C177.524 77.4738 186.352 85.222 192.988 94.7126L181.192 102.979C175.2 94.4218 166.994 87.6541 157.452 83.4001C147.91 79.1461 137.391 77.5659 127.021 78.8285C116.65 80.091 106.818 84.1489 98.5751 90.5681C90.3326 96.9872 83.9901 105.526 80.2259 115.272L154.728 189.774C163.276 186.466 170.914 181.171 177.009 174.327C183.105 167.483 187.484 159.285 189.783 150.413H159.193V136.011H206C206 170.043 182.388 198.559 150.66 206.077L63.9155 119.348C71.4406 87.6196 99.9569 64 133.989 64Z" fill="#F0EFEF"/>
</g>
<defs>
<filter id="filter0_d" x="0" y="0" width="280" height="280" filterUnits="userSpaceOnUse" color-interpolation-filters="sRGB">
<feFlood flood-opacity="0" result="BackgroundImageFix"/>
<feColorMatrix in="SourceAlpha" type="matrix" values="0 0 0 0 0 0 0 0 0 0 0 0 0 0 0 0 0 0 127 0"/>
<feOffset dx="6" dy="6"/>
<feGaussianBlur stdDeviation="6"/>
<feColorMatrix type="matrix" values="0 0 0 0 0 0 0 0 0 0 0 0 0 0 0 0 0 0 0.35 0"/>
<feBlend mode="normal" in2="BackgroundImageFix" result="effect1_dropShadow"/>
<feBlend mode="normal" in="SourceGraphic" in2="effect1_dropShadow" result="shape"/>
</filter>
</defs>
</svg>
