<svg width="280" height="280" viewBox="0 0 280 280" fill="none" xmlns="http://www.w3.org/2000/svg">
<g filter="url(#filter0_d)">
<rect x="6" y="6" width="256" height="256" rx="8" fill="#E535AB"/>
<path fill-rule="evenodd" clip-rule="evenodd" d="M146.288 78.4815L175.861 95.5565C176.715 94.6531 177.695 93.8778 178.77 93.2545C184.903 89.7285 192.726 91.822 196.289 97.9555C199.815 104.089 197.721 111.911 191.588 115.474C190.52 116.089 189.37 116.547 188.172 116.834V150.996C189.357 151.284 190.495 151.739 191.551 152.348C197.721 155.91 199.815 163.733 196.252 169.867C192.726 176 184.867 178.093 178.733 174.567C177.545 173.886 176.474 173.017 175.563 171.994L146.17 188.964C146.601 190.267 146.819 191.631 146.818 193.004C146.818 200.055 141.089 205.822 134 205.822C126.912 205.822 121.183 200.092 121.183 193.004C121.183 191.744 121.364 190.527 121.701 189.378L92.1361 172.308C91.2917 173.193 90.3257 173.954 89.2671 174.567C83.0971 178.093 75.2741 176 71.7481 169.867C68.2226 163.733 70.3161 155.91 76.4491 152.348C77.5057 151.739 78.6434 151.284 79.8281 150.996V116.834C78.6303 116.547 77.4801 116.089 76.4126 115.474C70.2791 111.948 68.1856 104.089 71.7116 97.9555C75.2376 91.822 83.0966 89.7285 89.2301 93.2545C90.2997 93.8745 91.2746 94.6448 92.1251 95.542L121.707 78.4625C121.358 77.2789 121.181 76.0514 121.183 74.8175C121.183 67.73 126.912 62 134 62C141.089 62 146.818 67.7295 146.818 74.8175C146.818 76.0915 146.633 77.321 146.288 78.4815ZM143.207 83.7425L172.851 100.857C172.379 102.508 172.243 104.236 172.453 105.939C172.662 107.642 173.212 109.286 174.069 110.773C175.874 113.912 178.813 115.993 182.076 116.804V151.009C181.909 151.05 181.744 151.094 181.579 151.141L142.863 84.085C142.98 83.973 143.095 83.859 143.207 83.743V83.7425ZM125.146 84.0925L86.4296 151.147C86.2622 151.099 86.0939 151.054 85.9246 151.012V116.804C89.1871 115.993 92.1266 113.912 93.9311 110.773C94.7903 109.283 95.3406 107.636 95.5491 105.929C95.7576 104.222 95.62 102.491 95.1446 100.839L124.78 83.7285C124.899 83.852 125.021 83.9735 125.146 84.092V84.0925ZM137.582 87.13L176.289 154.17C175.402 155.016 174.642 155.986 174.032 157.049C173.424 158.105 172.969 159.243 172.681 160.427H95.3201C95.032 159.243 94.5768 158.105 93.9681 157.049C93.3561 155.993 92.5976 155.029 91.7151 154.187L130.43 87.133C131.59 87.4672 132.792 87.6362 134 87.635C135.244 87.635 136.445 87.459 137.582 87.13ZM143.479 184.369L172.93 167.365C172.842 167.087 172.763 166.807 172.694 166.524H95.3036C95.2626 166.691 95.2181 166.855 95.1706 167.02L124.766 184.107C125.961 182.865 127.395 181.877 128.982 181.203C130.569 180.529 132.276 180.183 134 180.187C135.785 180.183 137.55 180.554 139.182 181.274C140.815 181.995 142.279 183.049 143.479 184.369V184.369Z" fill="#F0EFEF"/>
</g>
<defs>
<filter id="filter0_d" x="0" y="0" width="280" height="280" filterUnits="userSpaceOnUse" color-interpolation-filters="sRGB">
<feFlood flood-opacity="0" result="BackgroundImageFix"/>
<feColorMatrix in="SourceAlpha" type="matrix" values="0 0 0 0 0 0 0 0 0 0 0 0 0 0 0 0 0 0 127 0"/>
<feOffset dx="6" dy="6"/>
<feGaussianBlur stdDeviation="6"/>
<feColorMatrix type="matrix" values="0 0 0 0 0 0 0 0 0 0 0 0 0 0 0 0 0 0 0.35 0"/>
<feBlend mode="normal" in2="BackgroundImageFix" result="effect1_dropShadow"/>
<feBlend mode="normal" in="SourceGraphic" in2="effect1_dropShadow" result="shape"/>
</filter>
</defs>
</svg>
