<svg width="280" height="280" viewBox="0 0 280 280" fill="none" xmlns="http://www.w3.org/2000/svg">
<g filter="url(#filter0_d)">
<rect x="6" y="6" width="256" height="256" rx="8" fill="#F7DF1E"/>
<path d="M79.001 224.962L98.6276 213.084C102.415 219.797 105.859 225.478 114.122 225.478C122.041 225.478 127.036 222.38 127.036 210.329V128.379H151.138V210.67C151.138 235.634 136.504 246.997 115.154 246.997C95.8735 246.997 84.6816 237.011 79 224.96" fill="black"/>
<path d="M164.229 222.379L183.854 211.017C189.021 219.454 195.735 225.651 207.613 225.651C217.601 225.651 223.969 220.658 223.969 213.771C223.969 205.508 217.427 202.58 206.408 197.761L200.384 195.176C182.994 187.775 171.46 178.478 171.46 158.851C171.46 140.774 185.233 127 206.754 127C222.076 127 233.095 132.338 241.014 146.283L222.247 158.335C218.114 150.933 213.64 148.006 206.753 148.006C199.694 148.006 195.217 152.483 195.217 158.335C195.217 165.566 199.694 168.494 210.023 172.971L216.048 175.553C236.536 184.334 248.071 193.286 248.071 213.427C248.071 235.122 231.027 247 208.129 247C185.749 247 171.287 236.326 164.228 222.38" fill="black"/>
</g>
<defs>
<filter id="filter0_d" x="0" y="0" width="280" height="280" filterUnits="userSpaceOnUse" color-interpolation-filters="sRGB">
<feFlood flood-opacity="0" result="BackgroundImageFix"/>
<feColorMatrix in="SourceAlpha" type="matrix" values="0 0 0 0 0 0 0 0 0 0 0 0 0 0 0 0 0 0 127 0"/>
<feOffset dx="6" dy="6"/>
<feGaussianBlur stdDeviation="6"/>
<feColorMatrix type="matrix" values="0 0 0 0 0 0 0 0 0 0 0 0 0 0 0 0 0 0 0.35 0"/>
<feBlend mode="normal" in2="BackgroundImageFix" result="effect1_dropShadow"/>
<feBlend mode="normal" in="SourceGraphic" in2="effect1_dropShadow" result="shape"/>
</filter>
</defs>
</svg>
