<svg width="280" height="280" viewBox="0 0 280 280" fill="none" xmlns="http://www.w3.org/2000/svg">
<g filter="url(#filter0_d)">
<rect x="6" y="6" width="256" height="256" rx="8" fill="#E0234E"/>
<path d="M147.121 62C146.076 62 145.105 62.2242 144.209 62.5229C146.113 63.7918 147.158 65.4718 147.681 67.376C147.718 67.6375 147.793 67.8244 147.83 68.0853C147.867 68.3095 147.905 68.5336 147.905 68.7573C148.054 72.0427 147.046 72.4533 146.337 74.3947C145.254 76.8964 145.553 79.5844 146.859 81.7495C146.971 82.0109 147.121 82.3097 147.307 82.5711C145.889 73.1253 153.766 71.7067 155.222 68.7573C155.334 66.1816 153.206 64.4638 151.526 63.2695C149.921 62.2982 148.465 62 147.121 62ZM158.993 64.1278C158.844 64.9867 158.955 64.7625 158.918 65.2109C158.881 65.5096 158.881 65.8829 158.844 66.1816C158.769 66.4798 158.695 66.7785 158.582 67.0773C158.508 67.3766 158.396 67.6747 158.284 67.9735C158.134 68.2722 158.023 68.5336 157.873 68.8318C157.761 68.9815 157.687 69.1311 157.574 69.2802L157.351 69.6162C157.164 69.8776 156.977 70.1391 156.79 70.3627C156.566 70.5869 156.38 70.8484 156.118 71.0347V71.072C155.894 71.2589 155.671 71.4831 155.409 71.6695C154.625 72.2669 153.729 72.7147 152.907 73.2749C152.647 73.4613 152.385 73.6109 152.161 73.8351C151.899 74.0215 151.675 74.2078 151.452 74.4326C151.19 74.6562 151.004 74.8804 150.78 75.1418C150.593 75.3655 150.369 75.6275 150.219 75.8884C150.033 76.1498 149.847 76.4107 149.697 76.6722C149.547 76.9715 149.436 77.2324 149.286 77.5305C149.174 77.8298 149.062 78.0913 148.988 78.3895C148.875 78.7255 148.801 79.0242 148.726 79.3229C148.689 79.4726 148.689 79.6589 148.652 79.8086C148.614 79.9576 148.614 80.1073 148.577 80.2564C148.577 80.5551 148.539 80.8911 148.539 81.1898C148.539 81.414 148.539 81.6377 148.577 81.8618C148.577 82.1606 148.615 82.4593 148.689 82.7953C148.726 83.094 148.801 83.3922 148.875 83.6909C148.988 83.9902 149.062 84.2884 149.175 84.5871C149.249 84.7735 149.361 84.9604 149.436 85.11L140.849 81.7873C139.415 81.3789 137.971 81.0053 136.519 80.6669L134.167 80.1073C131.926 79.6589 129.649 79.3229 127.372 79.0993C127.298 79.0993 127.26 79.0615 127.186 79.0615C124.965 78.8378 122.734 78.7257 120.502 78.7255C118.86 78.7255 117.217 78.8 115.612 78.9118C113.334 79.0615 111.057 79.3602 108.779 79.7335C108.219 79.8086 107.659 79.9204 107.1 80.0328C105.942 80.2564 104.822 80.5178 103.74 80.7793L102.059 81.2271C101.499 81.4513 100.977 81.7128 100.454 81.9364L99.222 82.4966C99.1475 82.5338 99.0724 82.5338 99.0357 82.5711C98.6618 82.7575 98.3258 82.9071 97.9898 83.0935C97.8999 83.124 97.8125 83.1616 97.7284 83.2058C97.3178 83.3922 96.9073 83.6164 96.5713 83.8033C96.3098 83.9151 96.0484 84.0642 95.8248 84.176C95.7164 84.2447 95.6042 84.3071 95.4888 84.3629C95.1528 84.5493 94.8168 84.7362 94.5175 84.9231C94.182 85.1095 93.8833 85.2964 93.6218 85.4833C93.3604 85.6697 93.0995 85.8193 92.8753 86.0056C92.838 86.0429 92.8008 86.0429 92.7629 86.0802C92.5393 86.2298 92.2778 86.4162 92.0536 86.6031L91.9791 86.6777L91.4195 87.1255C91.3444 87.1633 91.2698 87.2378 91.1953 87.2751C91.0089 87.4242 90.822 87.6111 90.6351 87.7608C90.5978 87.8347 90.5233 87.8726 90.486 87.9098C90.2618 88.134 90.0376 88.3204 89.814 88.5446C89.7762 88.5446 89.7762 88.5818 89.7395 88.6191C89.5153 88.8055 89.2911 89.0297 89.0675 89.2538C89.0296 89.2911 89.0296 89.3284 88.9924 89.3284C88.806 89.5147 88.6197 89.7017 88.4328 89.9258C88.3582 90.0004 88.2464 90.0749 88.1713 90.1495C87.9849 90.3737 87.7608 90.5978 87.5366 90.8215C87.4993 90.8966 87.4248 90.9338 87.3869 91.0084C87.0888 91.3071 86.8273 91.6058 86.5286 91.9046L86.4168 92.0164C85.8193 92.6511 85.1846 93.2858 84.5126 93.846C83.8506 94.4368 83.1522 94.9854 82.4215 95.4888C81.6975 95.9964 80.9502 96.4698 80.1818 96.9073C79.4199 97.3252 78.6346 97.6991 77.8298 98.0271C77.0356 98.3646 76.2257 98.6637 75.4027 98.9233C73.8351 99.2593 72.2291 99.894 70.8484 100.006C70.5491 100.006 70.2136 100.08 69.9149 100.118C69.5789 100.193 69.2802 100.267 68.9815 100.342L68.0853 100.678C67.7865 100.79 67.4884 100.939 67.1896 101.088C66.9282 101.275 66.6295 101.424 66.368 101.611C66.1065 101.798 65.8456 102.022 65.6215 102.246C65.36 102.432 65.0985 102.694 64.8749 102.918C64.6507 103.179 64.4265 103.404 64.2402 103.665C64.0538 103.963 63.8296 104.225 63.68 104.523C63.4936 104.785 63.3067 105.083 63.1571 105.382C63.008 105.718 62.8589 106.017 62.7465 106.353C62.6288 106.675 62.5168 106.998 62.4105 107.323C62.336 107.622 62.2615 107.921 62.2242 108.219C62.2242 108.257 62.1864 108.294 62.1864 108.331C62.1118 108.667 62.1118 109.116 62.0745 109.339C62.0373 109.601 62 109.825 62 110.086C62 110.235 62 110.422 62.0373 110.571C62.0745 110.833 62.1118 111.057 62.1869 111.281C62.2615 111.505 62.336 111.729 62.4484 111.953V111.99C62.5602 112.214 62.7093 112.438 62.8589 112.662C63.008 112.886 63.1576 113.11 63.3446 113.334C63.5309 113.52 63.7545 113.745 63.9787 113.931C64.2029 114.156 64.4271 114.342 64.688 114.529C65.5842 115.313 65.8084 115.574 66.9655 116.172C67.1518 116.283 67.3387 116.358 67.5629 116.47C67.6002 116.47 67.6375 116.508 67.6747 116.508C67.6747 116.582 67.6747 116.619 67.7126 116.694C67.7498 116.993 67.8244 117.291 67.8989 117.59C67.9735 117.926 68.0853 118.225 68.1976 118.486C68.3095 118.711 68.384 118.934 68.4964 119.158C68.5336 119.233 68.5709 119.308 68.6082 119.345C68.7578 119.644 68.9075 119.905 69.0566 120.166L69.6162 120.95C69.8025 121.174 70.0267 121.436 70.2509 121.66C70.4751 121.884 70.6993 122.071 70.9602 122.294C70.9602 122.294 70.998 122.332 71.0347 122.332C71.2589 122.518 71.4831 122.705 71.7067 122.854C71.9682 123.041 72.2296 123.19 72.5284 123.34C72.7898 123.489 73.0886 123.639 73.3867 123.751C73.6109 123.862 73.8724 123.937 74.1338 124.012C74.1711 124.049 74.2084 124.049 74.2829 124.087C74.4326 124.124 74.6189 124.161 74.7686 124.198C74.6562 126.214 74.6189 128.119 74.9176 128.791C75.2536 129.537 76.8964 127.26 78.5391 124.647C78.3155 127.222 78.1664 130.246 78.5391 131.143C78.9496 132.076 81.1898 129.164 83.1313 125.953C109.601 119.83 133.756 138.124 136.295 163.959C135.809 159.927 130.844 157.687 128.567 158.247C127.447 161.01 125.543 164.557 122.482 166.759C122.743 164.295 122.631 161.756 122.108 159.293C121.287 162.727 119.681 165.938 117.478 168.701C113.932 168.962 110.386 167.245 108.518 164.669C108.369 164.557 108.332 164.333 108.22 164.183C108.108 163.922 107.996 163.661 107.921 163.399C107.812 163.149 107.737 162.885 107.697 162.615C107.66 162.354 107.66 162.092 107.66 161.794V161.234C107.697 160.973 107.772 160.711 107.846 160.45C107.921 160.189 107.996 159.927 108.108 159.666C108.257 159.404 108.369 159.143 108.555 158.882C109.19 157.09 109.19 155.634 108.033 154.775C107.809 154.629 107.571 154.504 107.324 154.402C107.174 154.364 106.988 154.289 106.838 154.253C106.726 154.215 106.652 154.178 106.539 154.14C106.279 154.066 106.017 153.991 105.756 153.954C105.501 153.88 105.237 153.842 104.972 153.842C104.71 153.804 104.412 153.767 104.15 153.767C103.964 153.767 103.778 153.804 103.59 153.804C103.292 153.804 103.03 153.842 102.769 153.917C102.507 153.954 102.246 153.991 101.985 154.066C101.724 154.14 101.462 154.215 101.201 154.327C100.94 154.439 100.715 154.551 100.454 154.663C100.23 154.775 100.006 154.925 99.7449 155.036C91.0462 160.712 96.2353 174.002 102.171 177.848C99.9313 178.258 97.6538 178.744 97.0197 179.229L96.9451 179.304C98.55 180.275 100.23 181.096 101.985 181.805C104.374 182.589 106.913 183.298 108.033 183.597V183.634C111.126 184.269 114.289 184.494 117.441 184.306C133.98 183.149 147.533 170.568 149.996 153.991C150.071 154.327 150.146 154.626 150.221 154.962C150.332 155.634 150.482 156.343 150.557 157.052V157.09C150.631 157.426 150.668 157.762 150.706 158.061V158.21C150.744 158.546 150.781 158.882 150.781 159.181C150.818 159.591 150.855 160.002 150.855 160.413V161.01C150.855 161.197 150.893 161.421 150.893 161.607C150.893 161.832 150.855 162.056 150.855 162.279V162.802C150.855 163.064 150.818 163.288 150.818 163.549C150.818 163.698 150.818 163.848 150.78 164.034C150.78 164.295 150.743 164.557 150.743 164.856C150.706 164.967 150.706 165.08 150.706 165.192C150.668 165.49 150.631 165.752 150.593 166.05C150.593 166.162 150.593 166.274 150.556 166.386C150.519 166.759 150.444 167.096 150.407 167.469V167.544C150.332 167.88 150.257 168.253 150.183 168.589V168.701L149.959 169.709C149.959 169.746 149.921 169.821 149.921 169.858C149.847 170.194 149.772 170.53 149.66 170.867V170.979C149.548 171.352 149.436 171.688 149.362 172.024C149.324 172.061 149.324 172.098 149.324 172.098L148.988 173.218C148.839 173.592 148.727 173.928 148.577 174.301C148.428 174.674 148.316 175.048 148.167 175.384C148.017 175.757 147.867 176.093 147.719 176.466H147.681C147.532 176.802 147.382 177.176 147.195 177.512C147.165 177.602 147.128 177.689 147.084 177.773C147.046 177.811 147.046 177.848 147.009 177.886C144.583 182.776 140.998 187.069 136.519 190.429C136.219 190.616 135.921 190.84 135.622 191.064C135.548 191.139 135.436 191.176 135.361 191.25C135.099 191.437 134.839 191.624 134.54 191.811L134.652 192.035H134.689L136.257 191.811H136.294C137.266 191.662 138.236 191.475 139.207 191.288C139.468 191.251 139.767 191.176 140.028 191.102C140.215 191.064 140.364 191.027 140.551 190.99C140.812 190.952 141.074 190.878 141.334 190.84C141.559 190.765 141.783 190.728 142.006 190.654C145.74 189.757 149.362 188.525 152.834 187.069C146.897 195.171 138.945 201.704 129.649 205.998C133.942 205.699 138.236 204.99 142.38 203.795C157.426 199.352 170.082 189.235 177.661 175.608C176.122 184.252 172.693 192.449 167.618 199.614C171.236 197.227 174.579 194.447 177.586 191.326C185.949 182.59 191.437 171.501 193.304 159.591C194.577 165.5 194.942 171.568 194.386 177.587C221.341 139.991 196.626 101.014 186.285 90.7475C186.247 90.6729 186.21 90.6357 186.21 90.5611C186.173 90.5984 186.173 90.5984 186.173 90.6357C186.173 90.5978 186.173 90.5978 186.135 90.5611C186.135 91.0089 186.098 91.4568 186.061 91.9051C185.949 92.7635 185.837 93.5851 185.688 94.4068C185.501 95.2279 185.277 96.0489 185.053 96.8706C184.787 97.6788 184.488 98.4757 184.157 99.2593C183.821 100.006 183.447 100.79 183.037 101.537C182.626 102.247 182.178 102.993 181.693 103.665C181.213 104.359 180.702 105.032 180.162 105.681C179.602 106.353 179.005 106.951 178.407 107.548C178.056 107.87 177.695 108.181 177.325 108.481C177.026 108.742 176.765 108.967 176.466 109.228C175.794 109.75 175.122 110.236 174.375 110.684C173.666 111.132 172.919 111.58 172.173 111.953C171.388 112.327 170.604 112.663 169.82 112.999C169.025 113.299 168.215 113.561 167.394 113.782C166.568 114.005 165.734 114.192 164.892 114.343C164.034 114.492 163.176 114.567 162.354 114.641C161.756 114.679 161.159 114.716 160.562 114.716C159.703 114.716 158.844 114.641 158.023 114.567C157.164 114.492 156.305 114.38 155.484 114.193C154.626 114.044 153.804 113.82 152.983 113.559H152.945C153.767 113.484 154.589 113.409 155.41 113.259C156.252 113.113 157.087 112.926 157.911 112.7C158.732 112.478 159.542 112.216 160.337 111.916C161.159 111.617 161.943 111.244 162.69 110.87C163.474 110.498 164.183 110.086 164.93 109.639C165.639 109.153 166.349 108.667 167.021 108.145C167.689 107.625 168.325 107.064 168.924 106.465C169.559 105.905 170.119 105.271 170.679 104.635C171.225 103.982 171.748 103.309 172.247 102.619C172.322 102.507 172.397 102.358 172.471 102.247C172.844 101.649 173.218 101.052 173.554 100.454C173.964 99.714 174.338 98.9539 174.674 98.1768C175.011 97.3956 175.31 96.5984 175.57 95.7881C175.831 95.0031 176.018 94.182 176.204 93.3609C176.354 92.5026 176.504 91.6809 176.578 90.8593C176.652 90.0009 176.727 89.1426 176.727 88.3209C176.727 87.7235 176.69 87.126 176.653 86.5286C176.578 85.6702 176.466 84.8486 176.354 84.0269C176.207 83.1849 176.02 82.3502 175.794 81.5258C175.532 80.742 175.272 79.9204 174.973 79.1366C174.674 78.3528 174.301 77.5684 173.928 76.8218C173.516 76.0753 173.106 75.3282 172.658 74.6195C172.181 73.9197 171.683 73.2348 171.164 72.5656C170.602 71.9217 170.03 71.2869 169.447 70.6615C169.133 70.3412 168.809 70.0301 168.476 69.7286C166.804 68.4295 165.072 67.2084 163.287 66.0693C163.046 65.9302 162.796 65.8057 162.54 65.6966C161.309 64.9122 160.152 64.5016 158.994 64.1284L158.993 64.1278Z" fill="#F0EFEF"/>
</g>
<defs>
<filter id="filter0_d" x="0" y="0" width="280" height="280" filterUnits="userSpaceOnUse" color-interpolation-filters="sRGB">
<feFlood flood-opacity="0" result="BackgroundImageFix"/>
<feColorMatrix in="SourceAlpha" type="matrix" values="0 0 0 0 0 0 0 0 0 0 0 0 0 0 0 0 0 0 127 0"/>
<feOffset dx="6" dy="6"/>
<feGaussianBlur stdDeviation="6"/>
<feColorMatrix type="matrix" values="0 0 0 0 0 0 0 0 0 0 0 0 0 0 0 0 0 0 0.35 0"/>
<feBlend mode="normal" in2="BackgroundImageFix" result="effect1_dropShadow"/>
<feBlend mode="normal" in="SourceGraphic" in2="effect1_dropShadow" result="shape"/>
</filter>
</defs>
</svg>
