<svg width="280" height="280" viewBox="0 0 280 280" fill="none" xmlns="http://www.w3.org/2000/svg">
<g filter="url(#filter0_d)">
<rect x="6" y="6" width="256" height="256" rx="8" fill="#111111"/>
<path d="M71.2998 99.543H116.302V103.12H75.425V130.041H113.865V133.617H75.425V163.174H116.771V166.75H71.2998V99.543ZM120.334 99.543H125.116L146.304 129.099L167.962 99.5425L197.419 62L149.023 132.206L173.962 166.75H168.993L146.304 135.312L123.521 166.75H118.646L143.773 132.205L120.334 99.543H120.334ZM175.743 103.12V99.5425H227.028V103.12H203.401V166.75H199.276V103.12H175.743V103.12ZM15 99.5425H20.1565L91.2618 205.945L61.8778 166.75L19.3125 104.626L19.1252 166.751H15V99.5425ZM226.612 162.094C225.769 162.094 225.137 161.441 225.137 160.597C225.137 159.753 225.769 159.1 226.612 159.1C227.465 159.1 228.087 159.753 228.087 160.597C228.087 161.441 227.465 162.094 226.612 162.094ZM230.665 158.156H232.873C232.903 159.351 233.776 160.155 235.06 160.155C236.495 160.155 237.308 159.291 237.308 157.673V147.426H239.555V157.683C239.555 160.597 237.87 162.275 235.08 162.275C232.461 162.275 230.665 160.647 230.665 158.155V158.156ZM242.495 158.025H244.722C244.913 159.401 246.257 160.275 248.194 160.275C250 160.275 251.325 159.341 251.325 158.055C251.325 156.95 250.481 156.287 248.565 155.835L246.699 155.383C244.08 154.77 242.886 153.504 242.886 151.374C242.886 148.792 244.993 147.074 248.154 147.074C251.093 147.074 253.241 148.792 253.371 151.233H251.184C250.973 149.897 249.809 149.063 248.123 149.063C246.348 149.063 245.164 149.917 245.164 151.223C245.164 152.258 245.926 152.851 247.813 153.293L249.408 153.685C252.378 154.378 253.602 155.584 253.602 157.764C253.602 160.537 251.455 162.275 248.024 162.275C244.813 162.275 242.655 160.617 242.495 158.025V158.025Z" fill="#F0EFEF"/>
</g>
<defs>
<filter id="filter0_d" x="0" y="0" width="280" height="280" filterUnits="userSpaceOnUse" color-interpolation-filters="sRGB">
<feFlood flood-opacity="0" result="BackgroundImageFix"/>
<feColorMatrix in="SourceAlpha" type="matrix" values="0 0 0 0 0 0 0 0 0 0 0 0 0 0 0 0 0 0 127 0"/>
<feOffset dx="6" dy="6"/>
<feGaussianBlur stdDeviation="6"/>
<feColorMatrix type="matrix" values="0 0 0 0 0 0 0 0 0 0 0 0 0 0 0 0 0 0 0.35 0"/>
<feBlend mode="normal" in2="BackgroundImageFix" result="effect1_dropShadow"/>
<feBlend mode="normal" in="SourceGraphic" in2="effect1_dropShadow" result="shape"/>
</filter>
</defs>
</svg>
