<svg width="280" height="280" viewBox="0 0 280 280" fill="none" xmlns="http://www.w3.org/2000/svg">
<g filter="url(#filter0_d)">
<rect x="6" y="6" width="256" height="256" rx="8" fill="#539E43"/>
<path d="M134 206.232C132.013 206.232 130.158 205.702 128.435 204.775L110.812 194.307C108.162 192.849 109.487 192.319 110.282 192.054C113.859 190.862 114.521 190.597 118.231 188.476C118.629 188.211 119.159 188.344 119.556 188.609L133.072 196.692C133.602 196.957 134.265 196.957 134.662 196.692L187.533 166.083C188.063 165.818 188.327 165.288 188.327 164.626V103.54C188.327 102.878 188.063 102.348 187.533 102.083L134.662 71.6062C134.132 71.3412 133.47 71.3412 133.072 71.6062L80.2025 102.083C79.6725 102.348 79.4075 103.011 79.4075 103.541V164.626C79.4075 165.156 79.6725 165.818 80.2025 166.083L94.646 174.431C102.464 178.406 107.366 173.768 107.366 169.131V108.84C107.366 108.045 108.029 107.25 108.957 107.25H115.715C116.51 107.25 117.305 107.913 117.305 108.84V169.13C117.305 179.598 111.607 185.693 101.669 185.693C98.621 185.693 96.236 185.693 89.4785 182.381L75.565 174.431C72.12 172.443 70 168.733 70 164.758V103.673C70 99.6982 72.12 95.9882 75.565 94.0002L128.435 63.3917C131.748 61.5367 136.253 61.5367 139.565 63.3917L192.435 94.0002C195.88 95.9877 198 99.6977 198 103.673V164.758C198 168.733 195.88 172.443 192.435 174.431L139.565 205.04C137.843 205.835 135.855 206.233 134 206.233V206.232ZM150.298 164.228C127.109 164.228 122.34 153.628 122.34 144.617C122.34 143.822 123.002 143.027 123.93 143.027H130.819C131.614 143.027 132.278 143.557 132.278 144.352C133.338 151.375 136.385 154.82 150.43 154.82C161.561 154.82 166.331 152.303 166.331 146.34C166.331 142.895 165.007 140.377 147.648 138.654C133.205 137.197 124.194 134.017 124.194 122.489C124.194 111.756 133.205 105.396 148.311 105.396C165.271 105.396 173.619 111.226 174.679 123.946C174.679 124.344 174.547 124.741 174.282 125.139C174.017 125.404 173.619 125.669 173.221 125.669H166.331C165.668 125.669 165.006 125.139 164.873 124.476C163.283 117.189 159.176 114.804 148.311 114.804C136.121 114.804 134.662 119.044 134.662 122.224C134.662 126.067 136.385 127.259 152.815 129.379C169.114 131.499 176.799 134.547 176.799 145.942C176.667 157.603 167.126 164.228 150.298 164.228V164.228Z" fill="#F0EFEF"/>
</g>
<defs>
<filter id="filter0_d" x="0" y="0" width="280" height="280" filterUnits="userSpaceOnUse" color-interpolation-filters="sRGB">
<feFlood flood-opacity="0" result="BackgroundImageFix"/>
<feColorMatrix in="SourceAlpha" type="matrix" values="0 0 0 0 0 0 0 0 0 0 0 0 0 0 0 0 0 0 127 0"/>
<feOffset dx="6" dy="6"/>
<feGaussianBlur stdDeviation="6"/>
<feColorMatrix type="matrix" values="0 0 0 0 0 0 0 0 0 0 0 0 0 0 0 0 0 0 0.35 0"/>
<feBlend mode="normal" in2="BackgroundImageFix" result="effect1_dropShadow"/>
<feBlend mode="normal" in="SourceGraphic" in2="effect1_dropShadow" result="shape"/>
</filter>
</defs>
</svg>
