<svg width="280" height="280" viewBox="0 0 280 280" fill="none" xmlns="http://www.w3.org/2000/svg">
<g filter="url(#filter0_d)">
<rect x="6" y="6" width="256" height="256" rx="8" fill="#13C3E3"/>
<path d="M133.915 148.304C141.895 148.304 148.364 141.835 148.364 133.855C148.364 125.875 141.895 119.406 133.915 119.406C125.935 119.406 119.466 125.875 119.466 133.855C119.466 141.835 125.935 148.304 133.915 148.304Z" fill="#F0EFEF"/>
<path d="M133.915 166.984C116.548 167.404 99.2242 165.063 82.5916 160.048C74.9083 157.613 67.7423 153.776 61.4556 148.732C59.0566 147.009 57.0589 144.787 55.5993 142.219C54.1398 139.651 53.2531 136.798 53 133.855C53 124.301 63.4958 114.938 81.0774 108.812C98.1546 103.384 115.997 100.753 133.915 101.021C151.593 100.774 169.196 103.358 186.058 108.673C193.458 111.032 200.381 114.684 206.507 119.458C208.864 121.101 210.832 123.242 212.271 125.73C213.709 128.218 214.582 130.992 214.829 133.855C214.829 143.785 203.097 153.847 184.197 160.1C167.887 164.952 150.929 167.273 133.915 166.984V166.984ZM133.915 107.934C116.773 107.704 99.7041 110.206 83.3488 115.343C67.1658 120.99 59.9124 128.711 59.9124 133.838C59.9124 139.201 67.7091 147.634 84.8283 153.488C100.74 158.262 117.308 160.483 133.915 160.071C150.192 160.363 166.419 158.16 182.03 153.541C199.802 147.651 207.894 139.207 207.894 133.855C207.602 132.019 206.933 130.262 205.928 128.698C204.923 127.133 203.605 125.793 202.056 124.764C196.576 120.528 190.391 117.292 183.787 115.204C167.656 110.14 150.82 107.685 133.915 107.934V107.934Z" fill="#F0EFEF"/>
<path d="M101.086 205.921C98.3901 205.983 95.7257 205.329 93.3647 204.025C85.0883 199.251 82.2216 185.484 85.6952 167.192C89.525 149.686 96.1609 132.915 105.346 117.527C113.962 102.091 124.992 88.1319 138.018 76.1801C143.758 70.9478 150.38 66.774 157.576 63.8522C160.179 62.6323 163.018 62 165.893 62C168.768 62 171.607 62.6323 174.21 63.8522C182.816 68.8111 185.665 83.9999 181.648 103.495C177.7 120.051 171.237 135.903 162.483 150.5C154.17 165.755 143.488 179.592 130.834 191.495C124.885 196.932 117.982 201.222 110.472 204.147C107.466 205.262 104.293 205.862 101.086 205.921V205.921ZM111.334 120.961C102.572 135.695 96.2121 151.73 92.492 168.463C89.2959 185.311 92.3648 195.442 96.8267 198.02C101.45 200.696 112.674 198.159 126.303 186.253C138.382 174.849 148.579 161.604 156.513 147.009C164.899 133.055 171.099 117.898 174.898 102.067C178.678 83.7167 175.412 72.4812 170.777 69.811C169.04 69.1453 167.183 68.8473 165.325 68.9359C163.466 69.0244 161.647 69.4975 159.981 70.3254C153.575 72.9686 147.686 76.7213 142.584 81.4107C130.138 92.8589 119.602 106.222 111.374 120.995L111.334 120.961Z" fill="#F0EFEF"/>
<path d="M166.725 205.996C158.894 205.996 148.947 201.257 138.59 192.35C125.336 180.29 114.119 166.165 105.375 150.523C96.3051 135.348 89.7217 118.82 85.8744 101.564C84.2059 93.9726 83.8967 86.1453 84.9612 78.4458C85.2073 75.5895 86.077 72.822 87.5091 70.3385C88.9411 67.8549 90.9005 65.7158 93.2492 64.0719C101.843 59.0956 116.425 64.2106 131.308 77.4228C143.68 89.1102 154.186 102.626 162.46 117.499C171.524 132.32 178.177 148.486 182.169 165.394C183.909 173.264 184.177 181.389 182.96 189.357C182.671 192.295 181.749 195.136 180.259 197.685C178.768 200.234 176.744 202.43 174.326 204.123C172.003 205.411 169.38 206.057 166.725 205.996V205.996ZM111.357 147.044C119.745 161.993 130.46 175.511 143.098 187.091C156.097 198.275 166.408 200.679 170.841 198.072C175.464 195.385 178.874 184.415 175.36 166.666C171.51 150.523 165.13 135.091 156.455 120.943C148.559 106.709 138.531 93.7667 126.719 82.5666C112.709 70.1289 101.346 67.3489 96.7169 70.0306C95.274 71.2032 94.0899 72.6622 93.2394 74.3156C92.3888 75.9689 91.8903 77.7806 91.7754 79.6364C90.8564 86.503 91.1558 93.478 92.6597 100.241C96.3604 116.742 102.674 132.547 111.362 147.056L111.357 147.044Z" fill="#F0EFEF"/>
</g>
<defs>
<filter id="filter0_d" x="0" y="0" width="280" height="280" filterUnits="userSpaceOnUse" color-interpolation-filters="sRGB">
<feFlood flood-opacity="0" result="BackgroundImageFix"/>
<feColorMatrix in="SourceAlpha" type="matrix" values="0 0 0 0 0 0 0 0 0 0 0 0 0 0 0 0 0 0 127 0"/>
<feOffset dx="6" dy="6"/>
<feGaussianBlur stdDeviation="6"/>
<feColorMatrix type="matrix" values="0 0 0 0 0 0 0 0 0 0 0 0 0 0 0 0 0 0 0.35 0"/>
<feBlend mode="normal" in2="BackgroundImageFix" result="effect1_dropShadow"/>
<feBlend mode="normal" in="SourceGraphic" in2="effect1_dropShadow" result="shape"/>
</filter>
</defs>
</svg>
