<svg width="280" height="280" viewBox="0 0 280 280" fill="none" xmlns="http://www.w3.org/2000/svg">
<g filter="url(#filter0_d)">
<rect x="6" y="6" width="256" height="256" rx="8" fill="#3178C6"/>
<path fill-rule="evenodd" clip-rule="evenodd" d="M165.83 213.644V239.528C170.533 241.849 175.545 243.483 180.713 244.379C186.684 245.482 192.745 246.024 198.818 245.999C204.736 246.027 210.64 245.43 216.433 244.219C221.634 243.168 226.597 241.166 231.071 238.313C235.225 235.632 238.648 231.962 241.035 227.632C245.309 218.667 245.873 208.377 242.604 198.998C241.225 195.491 239.169 192.289 236.555 189.575C233.749 186.688 230.561 184.199 227.08 182.176C223.073 179.829 218.91 177.76 214.62 175.983C211.245 174.583 208.208 173.221 205.508 171.9C203.11 170.752 200.815 169.4 198.649 167.859C196.952 166.669 195.478 165.19 194.296 163.488C193.274 161.944 192.741 160.126 192.769 158.274C192.746 156.57 193.221 154.896 194.135 153.457C195.128 151.951 196.453 150.693 198.008 149.779C199.908 148.66 201.976 147.854 204.133 147.391C206.78 146.803 209.486 146.52 212.198 146.547C214.479 146.555 216.757 146.719 219.015 147.037C221.454 147.367 223.867 147.866 226.237 148.53C228.647 149.198 231.005 150.044 233.29 151.061C235.507 152.05 237.628 153.241 239.626 154.621V130.467C235.467 128.894 231.155 127.763 226.76 127.092C221.452 126.32 216.093 125.956 210.73 126.004C204.868 125.973 199.022 126.638 193.317 127.987C188.16 129.165 183.256 131.26 178.84 134.171C174.737 136.904 171.349 140.581 168.96 144.894C166.429 149.683 165.177 155.045 165.324 160.46C165.137 167.62 167.496 174.616 171.981 180.201C177.483 186.395 184.421 191.143 192.186 194.029C195.73 195.491 199.034 196.923 202.099 198.323C204.865 199.554 207.523 201.013 210.047 202.685C212.082 204.009 213.87 205.68 215.328 207.621C216.611 209.381 217.291 211.508 217.269 213.687C217.28 215.319 216.861 216.925 216.054 218.344C215.157 219.868 213.896 221.146 212.384 222.064C210.492 223.218 208.422 224.05 206.259 224.528C203.44 225.158 200.558 225.455 197.67 225.414C192.003 225.403 186.382 224.404 181.058 222.461C175.497 220.454 170.34 217.468 165.83 213.644V213.644ZM122.348 149.205H156.094V127.886H62V149.205H95.5949V244.151H122.348V149.205Z" fill="white"/>
</g>
<defs>
<filter id="filter0_d" x="0" y="0" width="280" height="280" filterUnits="userSpaceOnUse" color-interpolation-filters="sRGB">
<feFlood flood-opacity="0" result="BackgroundImageFix"/>
<feColorMatrix in="SourceAlpha" type="matrix" values="0 0 0 0 0 0 0 0 0 0 0 0 0 0 0 0 0 0 127 0"/>
<feOffset dx="6" dy="6"/>
<feGaussianBlur stdDeviation="6"/>
<feColorMatrix type="matrix" values="0 0 0 0 0 0 0 0 0 0 0 0 0 0 0 0 0 0 0.35 0"/>
<feBlend mode="normal" in2="BackgroundImageFix" result="effect1_dropShadow"/>
<feBlend mode="normal" in="SourceGraphic" in2="effect1_dropShadow" result="shape"/>
</filter>
</defs>
</svg>
